<svg xmlns="http://www.w3.org/2000/svg" xmlns:xlink="http://www.w3.org/1999/xlink" width="308.972" height="258.723" viewBox="0 0 308.972 258.723"><defs><style>.a,.b,.d{fill:#949faa;}.a{opacity:0.24;}.c{fill:url(#a);}.d{opacity:0.45;}.e{fill:#c8a59c;}.f{fill:#606161;}.g{fill:url(#b);}.h{fill:url(#c);}.i{fill:url(#d);}.j{fill:url(#e);}.k{fill:url(#f);}.l{fill:url(#g);}.m{fill:url(#h);}.n{fill:url(#i);}.o{fill:url(#j);}.p{fill:url(#k);}.q{fill:url(#l);}.r{fill:#fff;}.s{fill:url(#m);}.t{fill:url(#n);}.u{fill:url(#o);}.v{fill:url(#p);}.w{fill:url(#q);}.x{fill:url(#r);}.y{fill:url(#s);}</style><linearGradient id="a" x1="0.408" y1="-1.013" x2="0.52" y2="0.824" gradientUnits="objectBoundingBox"><stop offset="0" stop-color="#fff" stop-opacity="0"/><stop offset="0.95" stop-color="#fff"/></linearGradient><linearGradient id="b" x1="-0.001" y1="0.501" x2="1" y2="0.501" gradientUnits="objectBoundingBox"><stop offset="0" stop-color="#010101" stop-opacity="0"/><stop offset="0.95" stop-color="#010101"/></linearGradient><linearGradient id="c" x1="0.54" y1="0.463" x2="-1.15" y2="1.493" xlink:href="#b"/><linearGradient id="d" x1="0.5" y1="0.91" x2="0.5" y2="-0.438" xlink:href="#b"/><linearGradient id="e" x1="0.42" y1="-0.723" x2="0.511" y2="0.766" xlink:href="#a"/><linearGradient id="f" x1="0.504" y1="0.162" x2="0.485" y2="3.249" xlink:href="#b"/><linearGradient id="g" x1="0.003" y1="0.5" x2="1.002" y2="0.5" gradientUnits="objectBoundingBox"><stop offset="0" stop-color="#e4c5d5"/><stop offset="0.42" stop-color="#e9d3cf"/><stop offset="1" stop-color="#efe8ca"/></linearGradient><linearGradient id="h" x1="0" y1="0.5" x2="1.001" y2="0.5" xlink:href="#g"/><linearGradient id="i" x1="-0.186" y1="0.5" x2="0.815" y2="0.5" xlink:href="#b"/><linearGradient id="j" x1="0.637" y1="0.351" x2="-0.29" y2="2.195" xlink:href="#b"/><linearGradient id="k" x1="-0.001" y1="0.5" x2="0.997" y2="0.5" xlink:href="#g"/><linearGradient id="l" x1="0.34" y1="0.602" x2="1.344" y2="0.003" gradientUnits="objectBoundingBox"><stop offset="0" stop-color="#010101" stop-opacity="0"/><stop offset="0.47" stop-color="#010101" stop-opacity="0.471"/><stop offset="0.95" stop-color="#010101"/></linearGradient><linearGradient id="m" x1="-0.002" y1="0.497" x2="0.999" y2="0.497" xlink:href="#g"/><linearGradient id="n" x1="0.88" y1="0.282" x2="0.296" y2="0.617" xlink:href="#b"/><linearGradient id="o" x1="0.606" y1="0.505" x2="-0.849" y2="0.66" xlink:href="#b"/><linearGradient id="p" x1="0.822" y1="0.319" x2="-0.532" y2="1.283" xlink:href="#b"/><linearGradient id="q" x1="0.593" y1="0.36" x2="1.053" y2="1.148" xlink:href="#b"/><linearGradient id="r" x1="0.787" y1="0.506" x2="-0.895" y2="0.621" xlink:href="#b"/><linearGradient id="s" x1="0.519" y1="-0.139" x2="-0.026" y2="3.866" xlink:href="#b"/></defs><g transform="translate(-39.52 11.17)"><path class="a" d="M238.145,77.216a70.974,70.974,0,0,1,8.566-1.324,58.432,58.432,0,0,1,39.312,11.124c19.3,14.1,27.669,40.023,32.5,63.363,5.459,26.2,4.882,54.316-5.049,79.274-13.581,34.133-46.846,60.384-81.605,57.546-15.131-1.226-29.536-7.594-44.621-9.408-17.327-2.084-34.736,1.888-52.138,3.064a164.893,164.893,0,0,1-76.855-13.41c-14.33-6.246-28.389-15.059-36.765-28.911-12.526-20.735-9.644-48.181-1.378-71.22,4.387-12.258,10.111-23.94,15.564-35.708s9.061-24.369,14.134-36.162c8.5-19.748,31.928-31.406,51.608-28.408,17.345,2.636,32.24,14.673,49.308,18.878,8.1,1.992,16.5,2.17,24.821,1.961a191.568,191.568,0,0,0,41.981-5.234C224.42,80.93,231.222,78.68,238.145,77.216Z" transform="translate(26.521 -77.738)"/><path class="a" d="M325.155,368.877c-4.276.218-8.934.592-12.035,3.536A462.179,462.179,0,0,0,425.413,370.8c-2.337-4.339-8.234-4.97-13.18-5.079-14.021-.312-30.465-4.245-44.283-1.963C353.656,366.127,339.659,368.877,325.155,368.877Z" transform="translate(-82.595 -131.636)"/><path class="a" d="M99.334,370.234c-2.337.055-5.6,1.129-5.118,3.443.335,1.558,2.267,2.15,3.895,2.4,39.111,6.169,79.164,5.515,118.33-.351-.491-2.461-9.963-1.457-14.021-2.134-4.985-.833-9.971-1.706-14.925-2.726a105.653,105.653,0,0,0-25.588-2.165Z" transform="translate(-34.195 -132.868)"/><rect class="b" width="188.832" height="123.105" rx="25.38" transform="translate(100.324 41.196)"/><rect class="c" width="188.832" height="123.105" rx="25.38" transform="translate(99.28 41.196)"/><path class="a" d="M239.816,219a21.608,21.608,0,1,1-22.737-21.515,8.325,8.325,0,0,1,1.161-.054A21.577,21.577,0,0,1,239.816,219Z" transform="translate(-56.838 -95.024)"/><path class="d" d="M235.082,150.03c-.171.592-2.937,1.332-3.645,1.784a13.82,13.82,0,0,0-3.178,3.116c-1.69,2.228-3.022,4.72-5.016,6.683a7.727,7.727,0,0,0-1.511,1.714,14.493,14.493,0,0,0-.857,3.061,5.4,5.4,0,0,1-4.752,3.708,5.351,5.351,0,0,1-4.128,9.347,16.521,16.521,0,0,1,1.869,7.12,21.538,21.538,0,0,0-15.9,8.28,4.993,4.993,0,0,1-3.24-2.4c-1.721,1.558-4.479.561-6.286-.865a17.512,17.512,0,0,1-4.012-22.286c2.142-3.505,6.738-6.232,10.243-4.128a4.266,4.266,0,0,1,4.674-1.48,12.253,12.253,0,0,1,4.479,2.757c-.327-2.586,1.869-5.079,4.424-5.585a7.844,7.844,0,0,1,7.011,2.734c-.717-.833,13.437-13.024,14.925-14.021C231.016,149.048,236.063,146.673,235.082,150.03Z" transform="translate(-53.623 -84.157)"/><path class="a" d="M230.821,187.845c-5.4,6.948-12.222,14.247-21.032,14.4-1.612,0-3.295-.187-4.791.436-2.874,1.2-3.708,4.8-4.16,7.891-1.129,7.79-2.251,15.7-.779,23.368,1.145,5.982,3.84,11.809,3.272,17.869a3.7,3.7,0,0,1-1.371,2.929,4.059,4.059,0,0,1-2.423.288l-13.491-1.184a5.8,5.8,0,0,1-3.178-.911,5.577,5.577,0,0,1-1.558-2.656c-5.453-15.509-4.144-32.451-2.789-48.824.3-3.607.608-7.275,1.932-10.648s3.809-6.457,7.236-7.618c7.789-2.641,15.322,5.39,23.555,5.71,8.568.327,14.559-7.213,20.689-12.019,2.049-1.612,7.081-6.45,7.532-1.5C239.794,178.662,232.784,185.36,230.821,187.845Z" transform="translate(-52.579 -89.67)"/><circle class="a" cx="21.585" cy="21.585" r="21.585" transform="translate(165.499 101.626)"/><path class="e" d="M144.185,198.905c-.833,2.1-1.683,4.315-1.293,6.535a11.249,11.249,0,0,0,1.706,3.895,77.39,77.39,0,0,0,8.015,10.866,6.535,6.535,0,0,0,3.077,2.29,119.1,119.1,0,0,0,.818-24.926,4.673,4.673,0,0,0-.506-2.158,4.868,4.868,0,0,0-2.251-1.644c-2.064-.966-4.121-2.1-6.232-2.874C146.9,191.669,144.824,198.905,144.185,198.905Z" transform="translate(-44.944 -93.579)"/><path class="f" d="M251.724,168.474l-8.615-1.41s-.888-1.831.467-2.454l13.632,2.337Z" transform="translate(-67.056 -87.77)"/><path class="e" d="M218.244,184.568a15.136,15.136,0,0,0,3.934.055c.506-.2,15.244-11.9,20.891-14.8a16.9,16.9,0,0,1,8.685-2.532c1.418-.094,3.116-.047,3.895,1.161a2.57,2.57,0,0,1-.179,2.711,5.6,5.6,0,0,1-2.2,1.784,14.721,14.721,0,0,1-5.8,1.628,5.057,5.057,0,0,0-1.558.234,4.37,4.37,0,0,0-1.628,1.394q-6.271,7.423-13.125,14.309c-2.438,2.446-5.2,4.97-8.631,5.359a12.268,12.268,0,0,1-3.692-.241,25.97,25.97,0,0,1-6.808-2.337,3.248,3.248,0,0,1-1.207-.9,3.022,3.022,0,0,1-.444-1.846,9.488,9.488,0,0,1,2.2-5.873C214.389,182.52,215.931,184.062,218.244,184.568Z" transform="translate(-59.881 -88.355)"/><path class="e" d="M189.2,149.149a22.821,22.821,0,0,1-.2,5.359c-.351,1.807-1.363,3.723-3.116,4.191-1.044.273-2.267,0-3.116.709-.639.522-.818,1.4-1.246,2.111a4.44,4.44,0,0,1-3.692,1.885,12.759,12.759,0,0,1-4.222-.833,2.282,2.282,0,0,1-.958-.483,2.337,2.337,0,0,1-.483-1.62q-.241-6.66-.187-13.336a9.051,9.051,0,0,1,.592-3.77,7.61,7.61,0,0,1,3.568-3.186,22.341,22.341,0,0,1,6.761-2.212c2.173-.351,5.788-.148,6.185,2.656a23.873,23.873,0,0,1-.14,3.069C188.98,145.488,189.128,147.311,189.2,149.149Z" transform="translate(-51.391 -81.851)"/><path class="f" d="M188.96,132.935a4.043,4.043,0,0,1,.436,3.583,6.909,6.909,0,0,1-2.181,3.007,7.789,7.789,0,0,0-1.558,1.5c-.943,1.41-.491,3.295-.779,4.977a.314.314,0,0,1-.218.319c-.14.023-.241-.093-.335-.2a1.869,1.869,0,0,0-3.272,1.433c.109,1.013,1.02,1.846.981,2.867a2.976,2.976,0,0,1-.717,1.558A2.617,2.617,0,0,1,180.127,153a2.852,2.852,0,0,1-1.231,0l-8.413-.974a6.051,6.051,0,0,1-1.394-.273,4.261,4.261,0,0,1-2.438-2.82,13.428,13.428,0,0,1-.405-3.832,17.186,17.186,0,0,0-1.067-6.964,1.9,1.9,0,0,1-.249-1.013,1.559,1.559,0,0,1,.335-.639c1.332-1.721,3.357-2.905,4.269-4.876a5.879,5.879,0,0,1,.537-1.059c.7-.927,2.064-.943,3.225-.88l5.2.288a24.637,24.637,0,0,0,3.256-.46,5.936,5.936,0,0,1,2.446.53C185.751,130.715,187.947,131.541,188.96,132.935Z" transform="translate(-49.837 -80.008)"/><path class="g" d="M188.96,132.935a4.043,4.043,0,0,1,.436,3.583,6.909,6.909,0,0,1-2.181,3.007,7.789,7.789,0,0,0-1.558,1.5c-.943,1.41-.491,3.295-.779,4.977a.314.314,0,0,1-.218.319c-.14.023-.241-.093-.335-.2a1.869,1.869,0,0,0-3.272,1.433c.109,1.013,1.02,1.846.981,2.867a2.976,2.976,0,0,1-.717,1.558A2.617,2.617,0,0,1,180.127,153a2.852,2.852,0,0,1-1.231,0l-8.413-.974a6.051,6.051,0,0,1-1.394-.273,4.261,4.261,0,0,1-2.438-2.82,13.428,13.428,0,0,1-.405-3.832,17.186,17.186,0,0,0-1.067-6.964,1.9,1.9,0,0,1-.249-1.013,1.559,1.559,0,0,1,.335-.639c1.332-1.721,3.357-2.905,4.269-4.876a5.879,5.879,0,0,1,.537-1.059c.7-.927,2.064-.943,3.225-.88l5.2.288a24.637,24.637,0,0,0,3.256-.46,5.936,5.936,0,0,1,2.446.53C185.751,130.715,187.947,131.541,188.96,132.935Z" transform="translate(-49.837 -80.008)"/><path class="b" d="M166.181,167.76a72.415,72.415,0,0,0,9.581.53c4.845.179,9.823,1.036,13.889,3.669a35.538,35.538,0,0,1,4.635,3.809l7.011,6.473a1.651,1.651,0,0,1,.685,1.753,13.811,13.811,0,0,1-4.611,8.88,1.075,1.075,0,0,1-.569.319,1.246,1.246,0,0,1-.615-.156l-7.79-3.614a13.421,13.421,0,0,0,0,4.635c2,11.24,0,22.948-.981,34.32a3.514,3.514,0,0,1-.351,1.5,3.264,3.264,0,0,1-1.293,1.114c-4.385,2.454-9.659,2.555-14.683,2.524-4.674,0-9.62-.234-13.375-2.96a3.717,3.717,0,0,1-1.114-1.145,4.378,4.378,0,0,1-.358-2.033l-.436-29.639a5.616,5.616,0,0,0-.288-2.072c-.693-1.729-7.143-4.424-8.257-9.713C148.047,180.41,161.717,168.578,166.181,167.76Z" transform="translate(-45.931 -88.466)"/><path class="h" d="M166.181,167.76a72.415,72.415,0,0,0,9.581.53c4.845.179,9.823,1.036,13.889,3.669a35.538,35.538,0,0,1,4.635,3.809l7.011,6.473a1.651,1.651,0,0,1,.685,1.753,13.811,13.811,0,0,1-4.611,8.88,1.075,1.075,0,0,1-.569.319,1.246,1.246,0,0,1-.615-.156l-7.79-3.614a13.421,13.421,0,0,0,0,4.635c2,11.24,0,22.948-.981,34.32a3.514,3.514,0,0,1-.351,1.5,3.264,3.264,0,0,1-1.293,1.114c-4.385,2.454-9.659,2.555-14.683,2.524-4.674,0-9.62-.234-13.375-2.96a3.717,3.717,0,0,1-1.114-1.145,4.378,4.378,0,0,1-.358-2.033l-.436-29.639a5.616,5.616,0,0,0-.288-2.072c-.693-1.729-7.143-4.424-8.257-9.713C148.047,180.41,161.717,168.578,166.181,167.76Z" transform="translate(-45.931 -88.466)"/><path class="f" d="M185.394,247.336s6.426,34.274,6.426,38.862-8.35,48.669-8.35,48.669-7.314.421-9.192-2.088l3.552-42.18-5.936-18.118-3.061,23.742-19.427,37.6-9.6-5.834,18.843-40.505s-9.449-19.964-3.684-40.583Z" transform="translate(-44.284 -105.96)"/><path class="i" d="M185.394,247.336s6.426,34.274,6.426,38.862-8.35,48.669-8.35,48.669-7.314.421-9.192-2.088l3.552-42.18-5.936-18.118-3.061,23.742-19.427,37.6-9.6-5.834,18.843-40.505s-9.449-19.964-3.684-40.583Z" transform="translate(-44.284 -105.96)"/><path class="f" d="M184.219,371.226a.693.693,0,0,0,.054.335.631.631,0,0,0,.374.265,13.154,13.154,0,0,0,4.315.615q7.081.187,14.177.319c0-2.259-1.947-4.089-4.043-4.931s-4.393-.982-6.574-1.558a1.955,1.955,0,0,1-1.153-.639,2.056,2.056,0,0,1-.249-1.083l-.171-4.463a2.01,2.01,0,0,0-.491-1.5,1.98,1.98,0,0,0-.685-.319c-.865-.257-3.077-1.184-3.895-.631s-.818,2.82-.943,3.755A74,74,0,0,0,184.219,371.226Z" transform="translate(-54.1 -130.401)"/><path class="f" d="M135.483,361.277a.9.9,0,0,0,.171,1.293l6.847,7.789a2.18,2.18,0,0,0,.654.576,2.336,2.336,0,0,0,.95.179c2.835.117,5.686.109,8.522,0a6.31,6.31,0,0,0-3.279-4.378,15.357,15.357,0,0,1-3.24-1.558,7.337,7.337,0,0,1-1.831-2.672,2.843,2.843,0,0,1,.132-3.474l1.41-2.337a2.041,2.041,0,0,0,.389-1.823,1.963,1.963,0,0,0-.865-.779c-.981-.576-2.337-1.753-3.459-1.963s-1.558.841-2.134,1.784A84.12,84.12,0,0,0,135.483,361.277Z" transform="translate(-43.283 -129.216)"/><rect class="a" width="55.773" height="3.762" rx="1.881" transform="translate(216.255 67.859)"/><rect class="a" width="55.773" height="3.762" rx="1.881" transform="translate(215.632 74.332)"/><rect class="a" width="55.773" height="3.762" rx="1.881" transform="translate(215.001 80.813)"/><rect class="a" width="55.773" height="3.762" rx="1.881" transform="translate(214.378 87.286)"/><rect class="a" width="57.86" height="50.966" transform="translate(213.544 97.732)"/><path class="a" d="M284.632,143.769l11.692,19.489,18.944-23.672,8.078,11.419,11.419-18.656v42.328H281.01V151.847Z" transform="translate(-65.378 -28.768)"/><path class="a" d="M361.318,194.9c-2.672-2.524-6.785-3.077-10.337-2.15a22.928,22.928,0,0,0-9.347,5.624,17.38,17.38,0,0,0-4.121,5.024c-1.27,2.571-1.418,5.546-1.433,8.413a110.83,110.83,0,0,0,1.558,18.928,3.537,3.537,0,0,0,.584,1.667c1,1.238,2.944.662,4.526.833a6.307,6.307,0,0,1,4.456,3.349,46.286,46.286,0,0,1,2.243,5.32,20.689,20.689,0,0,0,6.644,8.42c2.1,1.558,5.2,2.672,7.221,1a6.473,6.473,0,0,0,1.558-2.337c9.659-21.071,1.714-46.433,8.67-68.547.436-1.387,3.614-7.883,1.558-8.857-1.558-.7-3.934,3.326-4.6,4.23a58.929,58.929,0,0,0-5.453,8.506C364.4,185.5,360.25,193.9,361.318,194.9Z" transform="translate(-87.67 -89.294)"/><path class="j" d="M272.383,136.664c-1.511,2.493-5.016,5.453-9.527,7.836-6.972,3.677-13.709,4.572-15.073,1.986a2.82,2.82,0,0,1,.086-2.43,14.52,14.52,0,0,1,4.456-5.227,33.875,33.875,0,0,1,5.608-3.645c4.331-2.29,8.568-3.505,11.482-3.474Z" transform="translate(-68.1 -80.497)"/><path class="a" d="M250.647,140.776A14.394,14.394,0,0,0,246.192,146c-1.659-1.963-6.232-3.443-6.232-3.443C243.73,139.826,249.222,140.542,250.647,140.776Z" transform="translate(-66.423 -82.443)"/><path class="a" d="M251.216,159.557s6.107-3.116,7.213-8.607c0,0-5.188,2.072-7.649,1.122C250.78,152.072,252.416,154.416,251.216,159.557Z" transform="translate(-68.814 -84.75)"/><path class="a" d="M278.628,136.5h0l-2.968-4.954h0s4.868-.779,5.523.093S278.955,136.114,278.628,136.5Z" transform="translate(-74.314 -80.391)"/><circle class="a" cx="2.197" cy="2.197" r="2.197" transform="translate(186.803 58.527)"/><circle class="a" cx="1.729" cy="1.729" r="1.729" transform="translate(191.843 56.409)"/><circle class="a" cx="1.729" cy="1.729" r="1.729" transform="translate(196.181 54.212)"/><path class="k" d="M155.684,199.636V185.88s-6.45,3.069-7.564,5.85C148.12,191.73,154.188,198.9,155.684,199.636Z" transform="translate(-46.121 -92.471)"/><path class="l" d="M371.839,303.667a6.769,6.769,0,0,0,.125,3.809c2.22,9.752,4.3,19.629,4.347,29.6a20.2,20.2,0,0,1-1.231,8.046,15.336,15.336,0,0,1-4.463,5.616c-.709.592-1.558,1.371-1.309,2.259a1.8,1.8,0,0,0,.662.9,4.019,4.019,0,0,0,4.323.413,8.077,8.077,0,0,0,1.986-1.729L381.5,346.9a3.186,3.186,0,0,0,.678-.966,3.483,3.483,0,0,0-.257-2.243c-2.127-6.683.709-13.834,1.067-20.837.327-6.52-1.519-12.931-3.342-19.2a5.563,5.563,0,0,0-.849-1.94,3.723,3.723,0,0,0-3.054-1.215,10.83,10.83,0,0,0-3.295.818" transform="translate(-95.005 -117.805)"/><path class="m" d="M386.316,304.259q1.441,11.271,2.687,22.589c.865,7.9,1.651,16.023-.405,23.7-.421,1.558-.919,3.443.07,4.752a3.116,3.116,0,0,0,4.05.537,5.39,5.39,0,0,0,2.243-3.723,19.882,19.882,0,0,0,0-4.463c-.514-9.526,1.659-18.975,2.243-28.494a40.932,40.932,0,0,0-.5-10.734c-.732-3.583-2.516-8.74-5.873-10.726C386.518,295.122,385.973,301.548,386.316,304.259Z" transform="translate(-98.756 -117.057)"/><path class="b" d="M366.076,366.809a1.955,1.955,0,0,0-.53.779,1.3,1.3,0,0,0,.732,1.363,3.367,3.367,0,0,0,1.62.273,9.862,9.862,0,0,0,5.943-1.792c2.282-1.768,3.349-4.853,5.834-6.309a.6.6,0,0,1,.265-.109c.685-.086.444,1.246,1.028,1.6s1.059-.444,1.168-1.052a9.012,9.012,0,0,0,0-3.295c-.078-.366-.226-.779-.592-.888s-.826.382-1.052.779a9.114,9.114,0,0,1-2.843,3.326c-2.22,1.425-4.448.685-6.816,1.215C368.779,363.2,367.455,365.344,366.076,366.809Z" transform="translate(-94.181 -130.378)"/><path class="b" d="M388.095,370.352a8.832,8.832,0,0,0,.249,2.718,2.983,2.983,0,0,0,1.737,1.994,3.388,3.388,0,0,0,3.046-.779,8.568,8.568,0,0,0,2.906-4.619,16.242,16.242,0,0,0,.343-5.523c-.062-.74-.242-1.6-.911-1.924A4.775,4.775,0,0,1,391.881,366a2.4,2.4,0,0,1-2.859-1.472C387.955,365.943,388.126,368.584,388.095,370.352Z" transform="translate(-99.164 -131.452)"/><path class="f" d="M367.356,258.311a99.635,99.635,0,0,0,.242,14.379l.779,11.754.833,12.821a6.52,6.52,0,0,0,.857,3.412,4.325,4.325,0,0,0,3.318,1.425,188.957,188.957,0,0,0,20.977,1.036,3.023,3.023,0,0,0,2.578-.88,4.4,4.4,0,0,0,.631-2.212c.405-4.1.483-8.241.9-12.338.662-6.7,2.212-13.242,2.859-19.91s.327-13.834-2.5-19.754a4.736,4.736,0,0,0-1.309-1.846,4.05,4.05,0,0,0-2.056-.623,158.737,158.737,0,0,0-19.7-.9c-1.145,0-3.482-.436-4.487.226-.88.576-1.558,2.937-1.955,3.988a35.92,35.92,0,0,0-1.963,9.417Z" transform="translate(-94.55 -105.438)"/><path class="f" d="M369.778,161.015c-.982,2.921-1.6,6.115-.693,9.059a1.16,1.16,0,0,0,.3.561,1.269,1.269,0,0,0,.46.226l1.207.4a3.256,3.256,0,0,0,1.644.249,1.145,1.145,0,0,0,1-1.161l.475,1.7,6.473-.584a1.129,1.129,0,0,0,.6-.179,1.06,1.06,0,0,0,.3-.779c.4-3.965.3-7.961.351-11.949,0-2.158.078-4.4-.779-6.38s-2.944-3.607-5.071-3.2A4.461,4.461,0,0,0,372.52,153C372.037,155.765,370.674,158.374,369.778,161.015Z" transform="translate(-94.869 -84.299)"/><path class="n" d="M369.778,161.015c-.982,2.921-1.6,6.115-.693,9.059a1.16,1.16,0,0,0,.3.561,1.269,1.269,0,0,0,.46.226l1.207.4a3.256,3.256,0,0,0,1.644.249,1.145,1.145,0,0,0,1-1.161l.475,1.7,6.473-.584a1.129,1.129,0,0,0,.6-.179,1.06,1.06,0,0,0,.3-.779c.4-3.965.3-7.961.351-11.949,0-2.158.078-4.4-.779-6.38s-2.944-3.607-5.071-3.2A4.461,4.461,0,0,0,372.52,153C372.037,155.765,370.674,158.374,369.778,161.015Z" transform="translate(-94.869 -84.299)"/><path class="b" d="M401.675,186.74c1.441,2.991,1.628,6.411,1.784,9.729.327,6.652,2.477,13.9-.311,19.949-3.793,8.265,3.965,12.658-1.651,19.295-.833.981-30.114,3.007-32.482-2.142-.88-1.9,1.488-8.639,1.309-10.726-.95-10.991-1.854-22.371,1.792-32.778a16.585,16.585,0,0,1,3.63-6.372C383.939,175.57,396.5,175.866,401.675,186.74Z" transform="translate(-94.907 -90.738)"/><path class="o" d="M401.675,186.74c1.441,2.991,1.628,6.411,1.784,9.729.327,6.652,2.477,13.9-.311,19.949-3.793,8.265,3.965,12.658-1.651,19.295-.833.981-30.114,3.007-32.482-2.142-.88-1.9,1.488-8.639,1.309-10.726-.95-10.991-1.854-22.371,1.792-32.778a16.585,16.585,0,0,1,3.63-6.372C383.939,175.57,396.5,175.866,401.675,186.74Z" transform="translate(-94.907 -90.738)"/><path class="p" d="M374.514,160.935a15.742,15.742,0,0,0,0,4.985,5.818,5.818,0,0,0,2.7,4.019,14.924,14.924,0,0,0,2.968.927,1.558,1.558,0,0,1,.779.389,1.348,1.348,0,0,1,.3.608,13.421,13.421,0,0,1,.125,3.311,3.536,3.536,0,0,0,1.231,2.952,2.75,2.75,0,0,0,2.454.179,5.849,5.849,0,0,0,2.072-1.464,7.378,7.378,0,0,0,1.036-1.27,8.607,8.607,0,0,0,.943-4.728c0-2.165-.218-4.331-.234-6.5,0-3.832,1.831-6.115,1.706-9.939,0-.67-1.41-2.905-1.706-3.505a5.275,5.275,0,0,0-1.1-1.332,5.454,5.454,0,0,0-1.464-1.106,4.751,4.751,0,0,0-2.6-.156,23.157,23.157,0,0,0-5.4,1.5,5.615,5.615,0,0,0-1.831,1.106,2.392,2.392,0,0,0-.67,1.908,15.823,15.823,0,0,1-.436,2.594Q374.849,158.17,374.514,160.935Z" transform="translate(-96.122 -84.141)"/><path class="f" d="M373.539,141.264a11.684,11.684,0,0,0-3.49,7.127,6.916,6.916,0,0,0,.117,2.594,2.866,2.866,0,0,0,1.02,1.612,3.116,3.116,0,0,0,1.986.46,3.646,3.646,0,0,0,2.1-.662,1.94,1.94,0,0,0,.779-1.971l.2,1.947a.631.631,0,0,0,.117.374.686.686,0,0,0,.553.14l4.276-.234a.989.989,0,0,0,1.129-.779l.779-2.056a4.082,4.082,0,0,0,.631,2.3,2.064,2.064,0,0,0,2.633.436c-.039,5.453-.117,11.1-2.462,16.015a3.957,3.957,0,0,0,3.326,1.464,4.838,4.838,0,0,0,2.6-.592,2.571,2.571,0,0,0,1.309-2.212l-.093,1.363a.506.506,0,0,0,.078.374.514.514,0,0,0,.405.094l4.362-.312a1.052,1.052,0,0,0,1.122-.779,40.248,40.248,0,0,0,3.007-7.1,33.511,33.511,0,0,0,.639-12.245,13.623,13.623,0,0,0-.67-3.5c-1.254-3.326-4.814-5.266-8.3-5.912s-6.964-.164-10.446-.475A9.573,9.573,0,0,0,373.539,141.264Z" transform="translate(-95.164 -82.035)"/><path class="q" d="M373.539,141.264a11.684,11.684,0,0,0-3.49,7.127,6.916,6.916,0,0,0,.117,2.594,2.866,2.866,0,0,0,1.02,1.612,3.116,3.116,0,0,0,1.986.46,3.646,3.646,0,0,0,2.1-.662,1.94,1.94,0,0,0,.779-1.971l.2,1.947a.631.631,0,0,0,.117.374.686.686,0,0,0,.553.14l4.276-.234a.989.989,0,0,0,1.129-.779l.779-2.056a4.082,4.082,0,0,0,.631,2.3,2.064,2.064,0,0,0,2.633.436c-.039,5.453-.117,11.1-2.462,16.015a3.957,3.957,0,0,0,3.326,1.464,4.838,4.838,0,0,0,2.6-.592,2.571,2.571,0,0,0,1.309-2.212l-.093,1.363a.506.506,0,0,0,.078.374.514.514,0,0,0,.405.094l4.362-.312a1.052,1.052,0,0,0,1.122-.779,40.248,40.248,0,0,0,3.007-7.1,33.511,33.511,0,0,0,.639-12.245,13.623,13.623,0,0,0-.67-3.5c-1.254-3.326-4.814-5.266-8.3-5.912s-6.964-.164-10.446-.475A9.573,9.573,0,0,0,373.539,141.264Z" transform="translate(-95.164 -82.035)"/><path class="r" d="M353.2,163.243l-27.068,3.848L317.49,129.4l27.068-3.848Z" transform="translate(-73.442 -27.265)"/><path class="b" d="M410.751,218.611a3.894,3.894,0,0,1-4.206,4.814,44.033,44.033,0,0,1-26.258-5.281,4.253,4.253,0,0,1-1.6-1.309,4.2,4.2,0,0,1-.491-2.1,33.774,33.774,0,0,1,.1-4.44,2.259,2.259,0,0,1,.709-1.753,2.29,2.29,0,0,1,1.464-.249l12.276.608a1.667,1.667,0,0,0,1.184-.234,1.558,1.558,0,0,0,.46-1.036c.662-3.957,0-8.023.389-12.019.3-2.9,1.651-7.789,4.985-8.568,3.895-.911,5.149,3.988,6.146,6.707A79,79,0,0,1,410.751,218.611Z" transform="translate(-96.972 -92.705)"/><path class="s" d="M368.942,212.981a8.248,8.248,0,0,0-1.558-.576,7.933,7.933,0,0,0-1.488-.125h-3.186a12.462,12.462,0,0,0-2.8.273,1.223,1.223,0,0,0-.7.382,1.137,1.137,0,0,0-.187.639,4.2,4.2,0,0,0,2.158,3.895,1.659,1.659,0,0,1,.779.623c.086.171.086.382.164.561a1.417,1.417,0,0,0,.779.631,15.383,15.383,0,0,0,5.32,1.34,1.838,1.838,0,0,1,.74.14,4.664,4.664,0,0,1,.475.327,2.726,2.726,0,0,0,2.267.179,15.424,15.424,0,0,1,2.251-.647c.639-.078,1.418-.055,1.737-.6a1.558,1.558,0,0,0,.086-1.059,17.132,17.132,0,0,0-.4-2.68c-.2-.647-.732-.779-1.332-1.02l-2.578-1.161A10.979,10.979,0,0,1,368.942,212.981Z" transform="translate(-92.74 -98.307)"/><path class="b" d="M93.894,292a51.675,51.675,0,0,0-2.438-21.148c-1.316-3.895-3.116-7.68-4.276-11.684s-1.7-8.272-.444-12.214,2.158-7.3,4.222-10.866c2.275-3.895,4.588-7.891,7.852-11.022a43.029,43.029,0,0,0-6.278,32.716c.662,3.038,1.651,6,2.407,9.02a93.559,93.559,0,0,1,2.337,21.507,6.519,6.519,0,0,1-.841,4C95.592,293.438,94.728,293.15,93.894,292Z" transform="translate(-32.393 -101.135)"/><path class="b" d="M86.59,229.8s12.7,11.63,12,27.73-2.547,35.053-2.08,35.832,7.984.826,7.984.826a357.818,357.818,0,0,1-.537-36.314C104.662,237.675,86.59,229.8,86.59,229.8Z" transform="translate(-32.52 -102.18)"/><path class="t" d="M86.59,229.8s12.7,11.63,12,27.73-2.547,35.053-2.08,35.832,7.984.826,7.984.826a357.818,357.818,0,0,1-.537-36.314C104.662,237.675,86.59,229.8,86.59,229.8Z" transform="translate(-32.52 -102.18)"/><path class="b" d="M129.314,231.57s-15.034,11.684-18.492,30.885-5.242,32.2-5.242,32.2l8.568-.358s.117-31.01,6.8-45.085S129.314,231.57,129.314,231.57Z" transform="translate(-36.717 -102.571)"/><path class="u" d="M129.314,231.57s-15.034,11.684-18.492,30.885-5.242,32.2-5.242,32.2l8.568-.358s.117-31.01,6.8-45.085S129.314,231.57,129.314,231.57Z" transform="translate(-36.717 -102.571)"/><path class="b" d="M112.724,217s5.453,20.159,2.033,30.176-4.674,44.54-4.674,44.54l-4.533-.3s.413-36.556,2.025-41.923S114.1,230.85,112.724,217Z" transform="translate(-36.711 -99.351)"/><path class="v" d="M112.724,217s5.453,20.159,2.033,30.176-4.674,44.54-4.674,44.54l-4.533-.3s.413-36.556,2.025-41.923S114.1,230.85,112.724,217Z" transform="translate(-36.711 -99.351)"/><path class="b" d="M67.91,253.969s21.81-3.459,27.434,11.209,0,34.2,0,34.2l-2.976-.74s2.8-31.018-14.021-39.6Z" transform="translate(-28.39 -107.444)"/><path class="w" d="M67.91,253.969s21.81-3.459,27.434,11.209,0,34.2,0,34.2l-2.976-.74s2.8-31.018-14.021-39.6Z" transform="translate(-28.39 -107.444)"/><path class="x" d="M93.894,292a51.675,51.675,0,0,0-2.438-21.148c-1.316-3.895-3.116-7.68-4.276-11.684s-1.7-8.272-.444-12.214,2.158-7.3,4.222-10.866c2.275-3.895,4.588-7.891,7.852-11.022a43.029,43.029,0,0,0-6.278,32.716c.662,3.038,1.651,6,2.407,9.02a93.559,93.559,0,0,1,2.337,21.507,6.519,6.519,0,0,1-.841,4C95.592,293.438,94.728,293.15,93.894,292Z" transform="translate(-32.393 -101.135)"/><path class="b" d="M76.2,242.75h28.626L99.1,287.119H81.45Z" transform="translate(-20.104 -53.173)"/><path class="y" d="M76.2,242.75h28.626L99.1,287.119H81.45Z" transform="translate(-20.104 -53.173)"/></g></svg>